<mxfile host="app.diagrams.net" agent="Mozilla/5.0 (Windows NT 10.0; Win64; x64) AppleWebKit/537.36 (KHTML, like Gecko) Chrome/135.0.0.0 Safari/537.36" version="26.2.13">
  <diagram name="Page-1" id="WJMybsbGr9Ib0pNhd4TJ">
    <mxGraphModel dx="889" dy="466" grid="1" gridSize="10" guides="1" tooltips="1" connect="1" arrows="1" fold="1" page="1" pageScale="1" pageWidth="850" pageHeight="1100" math="0" shadow="0">
      <root>
        <mxCell id="0" />
        <mxCell id="1" parent="0" />
        <mxCell id="HecDsLcy7je2lKs4EvNO-89" value="" style="rounded=0;whiteSpace=wrap;html=1;fillColor=light-dark(#FFFFFF,#FFFFFF);strokeColor=light-dark(#000000,#000000);" parent="1" vertex="1">
          <mxGeometry x="120" y="680" width="520" height="240" as="geometry" />
        </mxCell>
        <mxCell id="HecDsLcy7je2lKs4EvNO-15" value="" style="rounded=0;whiteSpace=wrap;html=1;fillColor=light-dark(#000000,#FFFFFF);" parent="1" vertex="1">
          <mxGeometry x="100" y="360" width="730" height="240" as="geometry" />
        </mxCell>
        <mxCell id="HecDsLcy7je2lKs4EvNO-8" value="&lt;font style=&quot;color: light-dark(rgb(0, 0, 0), rgb(0, 0, 0));&quot;&gt;S&lt;/font&gt;" style="rounded=0;whiteSpace=wrap;html=1;strokeColor=light-dark(#000000,#000000);fillColor=light-dark(#FFFFFF,#FFFFFF);" parent="1" vertex="1">
          <mxGeometry x="240" y="480" width="80" height="40" as="geometry" />
        </mxCell>
        <mxCell id="HecDsLcy7je2lKs4EvNO-9" value="&lt;font style=&quot;color: light-dark(rgb(0, 0, 0), rgb(0, 0, 0));&quot;&gt;A&lt;/font&gt;" style="rounded=0;whiteSpace=wrap;html=1;strokeColor=light-dark(#000000,#000000);fillColor=light-dark(#FFFFFF,#FFFFFF);" parent="1" vertex="1">
          <mxGeometry x="320" y="480" width="80" height="40" as="geometry" />
        </mxCell>
        <mxCell id="HecDsLcy7je2lKs4EvNO-10" value="&lt;font style=&quot;color: light-dark(rgb(0, 0, 0), rgb(0, 0, 0));&quot;&gt;B&lt;/font&gt;" style="rounded=0;whiteSpace=wrap;html=1;strokeColor=light-dark(#000000,#000000);fillColor=light-dark(#FFFFFF,#FFFFFF);" parent="1" vertex="1">
          <mxGeometry x="400" y="480" width="80" height="40" as="geometry" />
        </mxCell>
        <mxCell id="HecDsLcy7je2lKs4EvNO-11" value="&lt;font style=&quot;color: light-dark(rgb(0, 0, 0), rgb(0, 0, 0));&quot;&gt;J&lt;/font&gt;" style="rounded=0;whiteSpace=wrap;html=1;fillColor=light-dark(#FFFFFF,#FFFFFF);strokeColor=light-dark(#000000,#000000);" parent="1" vertex="1">
          <mxGeometry x="480" y="250" width="80" height="40" as="geometry" />
        </mxCell>
        <mxCell id="HecDsLcy7je2lKs4EvNO-12" value="&lt;font style=&quot;color: light-dark(rgb(0, 0, 0), rgb(0, 0, 0));&quot;&gt;H&lt;/font&gt;" style="rounded=0;whiteSpace=wrap;html=1;fillColor=light-dark(#FFFFFF,#FFFFFF);strokeColor=light-dark(#000000,#000000);" parent="1" vertex="1">
          <mxGeometry x="480" y="480" width="80" height="40" as="geometry" />
        </mxCell>
        <mxCell id="HecDsLcy7je2lKs4EvNO-13" value="&lt;font style=&quot;color: light-dark(rgb(0, 0, 0), rgb(0, 0, 0));&quot;&gt;J&lt;/font&gt;" style="rounded=0;whiteSpace=wrap;html=1;gradientColor=none;fillColor=light-dark(#FFFFFF,#FFFFFF);strokeColor=light-dark(#000000,#000000);" parent="1" vertex="1">
          <mxGeometry x="560" y="480" width="80" height="40" as="geometry" />
        </mxCell>
        <mxCell id="HecDsLcy7je2lKs4EvNO-14" value="&lt;font style=&quot;color: light-dark(rgb(0, 0, 0), rgb(0, 0, 0));&quot;&gt;A&lt;/font&gt;" style="rounded=0;whiteSpace=wrap;html=1;fillColor=light-dark(#FFFFFF,#FFFFFF);strokeColor=light-dark(#000000,#000000);" parent="1" vertex="1">
          <mxGeometry x="640" y="480" width="80" height="40" as="geometry" />
        </mxCell>
        <mxCell id="HecDsLcy7je2lKs4EvNO-16" value="&lt;font style=&quot;color: light-dark(rgb(0, 0, 0), rgb(0, 0, 0));&quot;&gt;Array Address&lt;/font&gt;" style="text;html=1;align=center;verticalAlign=middle;whiteSpace=wrap;rounded=0;" parent="1" vertex="1">
          <mxGeometry x="120" y="440" width="80" height="40" as="geometry" />
        </mxCell>
        <mxCell id="HecDsLcy7je2lKs4EvNO-17" value="&lt;font style=&quot;color: light-dark(rgb(0, 0, 0), rgb(0, 0, 0));&quot;&gt;Character Array&lt;/font&gt;" style="text;html=1;align=center;verticalAlign=middle;whiteSpace=wrap;rounded=0;" parent="1" vertex="1">
          <mxGeometry x="120" y="480" width="80" height="40" as="geometry" />
        </mxCell>
        <mxCell id="HecDsLcy7je2lKs4EvNO-18" value="&lt;font style=&quot;color: light-dark(rgb(0, 0, 0), rgb(0, 0, 0));&quot;&gt;Index&lt;/font&gt;" style="text;html=1;align=center;verticalAlign=middle;whiteSpace=wrap;rounded=0;" parent="1" vertex="1">
          <mxGeometry x="120" y="520" width="80" height="40" as="geometry" />
        </mxCell>
        <mxCell id="HecDsLcy7je2lKs4EvNO-20" value="&lt;font style=&quot;color: light-dark(rgb(0, 0, 0), rgb(0, 0, 0));&quot;&gt;B&lt;/font&gt;" style="rounded=0;whiteSpace=wrap;html=1;fillColor=light-dark(#FFFFFF,#FFFFFF);strokeColor=light-dark(#000000,#000000);" parent="1" vertex="1">
          <mxGeometry x="720" y="480" width="80" height="40" as="geometry" />
        </mxCell>
        <mxCell id="HecDsLcy7je2lKs4EvNO-21" value="&lt;font style=&quot;color: light-dark(rgb(0, 0, 0), rgb(0, 0, 0));&quot;&gt;100&lt;/font&gt;" style="text;html=1;align=center;verticalAlign=middle;whiteSpace=wrap;rounded=0;" parent="1" vertex="1">
          <mxGeometry x="240" y="440" width="80" height="40" as="geometry" />
        </mxCell>
        <mxCell id="HecDsLcy7je2lKs4EvNO-22" value="&lt;font style=&quot;color: light-dark(rgb(0, 0, 0), rgb(0, 0, 0));&quot;&gt;101&lt;span style=&quot;font-family: monospace; font-size: 0px; text-align: start; text-wrap-mode: nowrap; color: rgba(0, 0, 0, 0);&quot;&gt;%3CmxGraphModel%3E%3Croot%3E%3CmxCell%20id%3D%220%22%2F%3E%3CmxCell%20id%3D%221%22%20parent%3D%220%22%2F%3E%3CmxCell%20id%3D%222%22%20value%3D%22100%22%20style%3D%22text%3Bhtml%3D1%3Balign%3Dcenter%3BverticalAlign%3Dmiddle%3BwhiteSpace%3Dwrap%3Brounded%3D0%3B%22%20vertex%3D%221%22%20parent%3D%221%22%3E%3CmxGeometry%20x%3D%22240%22%20y%3D%22440%22%20width%3D%2280%22%20height%3D%2240%22%20as%3D%22geometry%22%2F%3E%3C%2FmxCell%3E%3C%2Froot%3E%3C%2FmxGraphModel%3E&lt;/span&gt;&lt;/font&gt;" style="text;html=1;align=center;verticalAlign=middle;whiteSpace=wrap;rounded=0;" parent="1" vertex="1">
          <mxGeometry x="320" y="440" width="80" height="40" as="geometry" />
        </mxCell>
        <mxCell id="HecDsLcy7je2lKs4EvNO-23" value="&lt;font style=&quot;color: light-dark(rgb(0, 0, 0), rgb(0, 0, 0));&quot;&gt;102&lt;/font&gt;" style="text;html=1;align=center;verticalAlign=middle;whiteSpace=wrap;rounded=0;" parent="1" vertex="1">
          <mxGeometry x="400" y="440" width="80" height="40" as="geometry" />
        </mxCell>
        <mxCell id="HecDsLcy7je2lKs4EvNO-24" value="&lt;font style=&quot;color: light-dark(rgb(0, 0, 0), rgb(0, 0, 0));&quot;&gt;103&lt;/font&gt;" style="text;html=1;align=center;verticalAlign=middle;whiteSpace=wrap;rounded=0;" parent="1" vertex="1">
          <mxGeometry x="480" y="210" width="80" height="40" as="geometry" />
        </mxCell>
        <mxCell id="HecDsLcy7je2lKs4EvNO-25" value="&lt;font style=&quot;color: light-dark(rgb(0, 0, 0), rgb(0, 0, 0));&quot;&gt;104&lt;/font&gt;" style="text;html=1;align=center;verticalAlign=middle;whiteSpace=wrap;rounded=0;" parent="1" vertex="1">
          <mxGeometry x="480" y="440" width="80" height="40" as="geometry" />
        </mxCell>
        <mxCell id="HecDsLcy7je2lKs4EvNO-26" value="&lt;font style=&quot;color: light-dark(rgb(0, 0, 0), rgb(0, 0, 0));&quot;&gt;105&lt;/font&gt;" style="text;html=1;align=center;verticalAlign=middle;whiteSpace=wrap;rounded=0;" parent="1" vertex="1">
          <mxGeometry x="560" y="440" width="80" height="40" as="geometry" />
        </mxCell>
        <mxCell id="HecDsLcy7je2lKs4EvNO-27" value="&lt;font style=&quot;color: light-dark(rgb(0, 0, 0), rgb(0, 0, 0));&quot;&gt;106&lt;/font&gt;" style="text;html=1;align=center;verticalAlign=middle;whiteSpace=wrap;rounded=0;" parent="1" vertex="1">
          <mxGeometry x="640" y="440" width="80" height="40" as="geometry" />
        </mxCell>
        <mxCell id="HecDsLcy7je2lKs4EvNO-28" value="&lt;font style=&quot;color: light-dark(rgb(0, 0, 0), rgb(0, 0, 0));&quot;&gt;107&lt;/font&gt;" style="text;html=1;align=center;verticalAlign=middle;whiteSpace=wrap;rounded=0;" parent="1" vertex="1">
          <mxGeometry x="720" y="440" width="80" height="40" as="geometry" />
        </mxCell>
        <mxCell id="HecDsLcy7je2lKs4EvNO-29" value="&lt;font style=&quot;color: light-dark(rgb(0, 0, 0), rgb(0, 0, 0));&quot;&gt;0&lt;/font&gt;" style="text;html=1;align=center;verticalAlign=middle;whiteSpace=wrap;rounded=0;" parent="1" vertex="1">
          <mxGeometry x="240" y="520" width="80" height="40" as="geometry" />
        </mxCell>
        <mxCell id="HecDsLcy7je2lKs4EvNO-30" value="&lt;font style=&quot;color: light-dark(rgb(0, 0, 0), rgb(0, 0, 0));&quot;&gt;1&lt;/font&gt;" style="text;html=1;align=center;verticalAlign=middle;whiteSpace=wrap;rounded=0;" parent="1" vertex="1">
          <mxGeometry x="320" y="520" width="80" height="40" as="geometry" />
        </mxCell>
        <mxCell id="HecDsLcy7je2lKs4EvNO-31" value="&lt;font style=&quot;color: light-dark(rgb(0, 0, 0), rgb(0, 0, 0));&quot;&gt;2&lt;/font&gt;" style="text;html=1;align=center;verticalAlign=middle;whiteSpace=wrap;rounded=0;" parent="1" vertex="1">
          <mxGeometry x="400" y="520" width="80" height="40" as="geometry" />
        </mxCell>
        <mxCell id="HecDsLcy7je2lKs4EvNO-32" value="&lt;font style=&quot;color: light-dark(rgb(0, 0, 0), rgb(0, 0, 0));&quot;&gt;3&lt;/font&gt;" style="text;html=1;align=center;verticalAlign=middle;whiteSpace=wrap;rounded=0;" parent="1" vertex="1">
          <mxGeometry x="480" y="290" width="80" height="40" as="geometry" />
        </mxCell>
        <mxCell id="HecDsLcy7je2lKs4EvNO-33" value="&lt;font style=&quot;color: light-dark(rgb(0, 0, 0), rgb(0, 0, 0));&quot;&gt;4&lt;/font&gt;" style="text;html=1;align=center;verticalAlign=middle;whiteSpace=wrap;rounded=0;" parent="1" vertex="1">
          <mxGeometry x="480" y="520" width="80" height="40" as="geometry" />
        </mxCell>
        <mxCell id="HecDsLcy7je2lKs4EvNO-34" value="&lt;font style=&quot;color: light-dark(rgb(0, 0, 0), rgb(0, 0, 0));&quot;&gt;5&lt;/font&gt;" style="text;html=1;align=center;verticalAlign=middle;whiteSpace=wrap;rounded=0;" parent="1" vertex="1">
          <mxGeometry x="560" y="520" width="80" height="40" as="geometry" />
        </mxCell>
        <mxCell id="HecDsLcy7je2lKs4EvNO-35" value="&lt;font style=&quot;color: light-dark(rgb(0, 0, 0), rgb(0, 0, 0));&quot;&gt;6&lt;/font&gt;" style="text;html=1;align=center;verticalAlign=middle;whiteSpace=wrap;rounded=0;" parent="1" vertex="1">
          <mxGeometry x="640" y="520" width="80" height="40" as="geometry" />
        </mxCell>
        <mxCell id="HecDsLcy7je2lKs4EvNO-36" value="&lt;font style=&quot;color: light-dark(rgb(0, 0, 0), rgb(0, 0, 0));&quot;&gt;7&lt;/font&gt;" style="text;html=1;align=center;verticalAlign=middle;whiteSpace=wrap;rounded=0;" parent="1" vertex="1">
          <mxGeometry x="720" y="520" width="80" height="40" as="geometry" />
        </mxCell>
        <mxCell id="HecDsLcy7je2lKs4EvNO-38" value="&lt;div&gt;&lt;font style=&quot;color: light-dark(rgb(0, 0, 0), rgb(0, 0, 0));&quot;&gt;After deleted&lt;/font&gt;&lt;/div&gt;" style="text;html=1;align=center;verticalAlign=middle;whiteSpace=wrap;rounded=0;" parent="1" vertex="1">
          <mxGeometry x="380" y="370" width="170" height="40" as="geometry" />
        </mxCell>
        <mxCell id="HecDsLcy7je2lKs4EvNO-39" value="" style="rounded=0;whiteSpace=wrap;html=1;fillColor=light-dark(#FFE6CC,transparent);strokeColor=light-dark(#000000,#FF0202);strokeWidth=2;" parent="1" vertex="1">
          <mxGeometry x="480" y="210" width="80" height="120" as="geometry" />
        </mxCell>
        <mxCell id="HecDsLcy7je2lKs4EvNO-40" value="" style="shape=flexArrow;endArrow=classic;html=1;rounded=0;strokeColor=light-dark(#000000,#0000FF);fillColor=light-dark(#FFFFFF,#FF0100);strokeWidth=2;endWidth=9.988109393579073;endSize=4.103448275862069;width=5.517241379310345;" parent="1" edge="1">
          <mxGeometry width="50" height="50" relative="1" as="geometry">
            <mxPoint x="585" y="319.30999999999995" as="sourcePoint" />
            <mxPoint x="545" y="319.30999999999995" as="targetPoint" />
          </mxGeometry>
        </mxCell>
        <mxCell id="HecDsLcy7je2lKs4EvNO-41" value="" style="rounded=0;whiteSpace=wrap;html=1;fillColor=light-dark(#FFFFFF,#FFFFFF);strokeColor=light-dark(#000000,#000000);" parent="1" vertex="1">
          <mxGeometry x="40" y="980" width="490" height="120" as="geometry" />
        </mxCell>
        <mxCell id="HecDsLcy7je2lKs4EvNO-42" value="&lt;font style=&quot;font-size: 14px;&quot;&gt;a[0][1] = 1;&lt;/font&gt;&lt;div&gt;&lt;font style=&quot;font-size: 14px;&quot;&gt;a[2][3] = 3;&lt;/font&gt;&lt;/div&gt;" style="text;html=1;align=center;verticalAlign=middle;whiteSpace=wrap;rounded=0;fontColor=light-dark(#000000,#000000);" parent="1" vertex="1">
          <mxGeometry x="160" y="840" width="110" height="50" as="geometry" />
        </mxCell>
        <mxCell id="HecDsLcy7je2lKs4EvNO-43" value="" style="shape=flexArrow;endArrow=classic;html=1;rounded=0;width=6.4;endSize=6.0520000000000005;endWidth=7.44;strokeColor=light-dark(#000000,#0000FF);fillColor=light-dark(#FFFFFF,#FF0000);strokeWidth=2;" parent="1" edge="1">
          <mxGeometry width="50" height="50" relative="1" as="geometry">
            <mxPoint x="170" y="800" as="sourcePoint" />
            <mxPoint x="200" y="850" as="targetPoint" />
          </mxGeometry>
        </mxCell>
        <mxCell id="HecDsLcy7je2lKs4EvNO-44" value="" style="shape=flexArrow;endArrow=classic;html=1;rounded=0;width=6.4;endSize=6.0520000000000005;endWidth=7.44;strokeColor=light-dark(#000000,#0000FF);fillColor=light-dark(#FFFFFF,#FF0000);strokeWidth=2;" parent="1" edge="1">
          <mxGeometry width="50" height="50" relative="1" as="geometry">
            <mxPoint x="240" y="800" as="sourcePoint" />
            <mxPoint x="210" y="850" as="targetPoint" />
          </mxGeometry>
        </mxCell>
        <mxCell id="HecDsLcy7je2lKs4EvNO-45" value="&lt;font style=&quot;color: light-dark(rgb(0, 0, 0), rgb(0, 0, 0));&quot;&gt;Row (First Index)&lt;/font&gt;" style="text;html=1;align=center;verticalAlign=middle;whiteSpace=wrap;rounded=0;" parent="1" vertex="1">
          <mxGeometry x="130" y="760" width="60" height="30" as="geometry" />
        </mxCell>
        <mxCell id="HecDsLcy7je2lKs4EvNO-46" value="&lt;font style=&quot;color: light-dark(rgb(0, 0, 0), rgb(0, 0, 0));&quot;&gt;Column (Second Index)&lt;/font&gt;" style="text;html=1;align=center;verticalAlign=middle;whiteSpace=wrap;rounded=0;" parent="1" vertex="1">
          <mxGeometry x="220" y="760" width="60" height="30" as="geometry" />
        </mxCell>
        <mxCell id="HecDsLcy7je2lKs4EvNO-48" value="&lt;font style=&quot;color: light-dark(rgb(0, 0, 0), rgb(0, 0, 0));&quot;&gt;S&lt;/font&gt;" style="rounded=0;whiteSpace=wrap;html=1;strokeColor=light-dark(#000000,#000000);fillColor=light-dark(#FFFFFF,#FFFFFF);" parent="1" vertex="1">
          <mxGeometry x="450" y="760" width="40" height="40" as="geometry" />
        </mxCell>
        <mxCell id="HecDsLcy7je2lKs4EvNO-49" value="&lt;font style=&quot;color: light-dark(rgb(0, 0, 0), rgb(0, 0, 0));&quot;&gt;S&lt;/font&gt;" style="rounded=0;whiteSpace=wrap;html=1;strokeColor=light-dark(#000000,#000000);fillColor=light-dark(#FFFFFF,#FFFFFF);" parent="1" vertex="1">
          <mxGeometry x="490" y="760" width="40" height="40" as="geometry" />
        </mxCell>
        <mxCell id="HecDsLcy7je2lKs4EvNO-50" value="&lt;font style=&quot;color: light-dark(rgb(0, 0, 0), rgb(0, 0, 0));&quot;&gt;S&lt;/font&gt;" style="rounded=0;whiteSpace=wrap;html=1;strokeColor=light-dark(#000000,#000000);fillColor=light-dark(#FFFFFF,#FFFFFF);" parent="1" vertex="1">
          <mxGeometry x="530" y="760" width="40" height="40" as="geometry" />
        </mxCell>
        <mxCell id="HecDsLcy7je2lKs4EvNO-51" value="&lt;font style=&quot;color: light-dark(rgb(0, 0, 0), rgb(0, 0, 0));&quot;&gt;S&lt;/font&gt;" style="rounded=0;whiteSpace=wrap;html=1;strokeColor=light-dark(#000000,#000000);fillColor=light-dark(#FFFFFF,#FFFFFF);" parent="1" vertex="1">
          <mxGeometry x="570" y="760" width="40" height="40" as="geometry" />
        </mxCell>
        <mxCell id="HecDsLcy7je2lKs4EvNO-52" value="&lt;font style=&quot;color: light-dark(rgb(0, 0, 0), rgb(0, 0, 0));&quot;&gt;S&lt;/font&gt;" style="rounded=0;whiteSpace=wrap;html=1;strokeColor=light-dark(#000000,#000000);fillColor=light-dark(#FFFFFF,#FFFFFF);" parent="1" vertex="1">
          <mxGeometry x="450" y="800" width="40" height="40" as="geometry" />
        </mxCell>
        <mxCell id="HecDsLcy7je2lKs4EvNO-53" value="&lt;font style=&quot;color: light-dark(rgb(0, 0, 0), rgb(0, 0, 0));&quot;&gt;S&lt;/font&gt;" style="rounded=0;whiteSpace=wrap;html=1;strokeColor=light-dark(#000000,#000000);fillColor=light-dark(#FFFFFF,#FFFFFF);" parent="1" vertex="1">
          <mxGeometry x="490" y="800" width="40" height="40" as="geometry" />
        </mxCell>
        <mxCell id="HecDsLcy7je2lKs4EvNO-54" value="&lt;font style=&quot;color: light-dark(rgb(0, 0, 0), rgb(0, 0, 0));&quot;&gt;S&lt;/font&gt;" style="rounded=0;whiteSpace=wrap;html=1;strokeColor=light-dark(#000000,#000000);fillColor=light-dark(#FFFFFF,#FFFFFF);" parent="1" vertex="1">
          <mxGeometry x="530" y="800" width="40" height="40" as="geometry" />
        </mxCell>
        <mxCell id="HecDsLcy7je2lKs4EvNO-55" value="&lt;font style=&quot;color: light-dark(rgb(0, 0, 0), rgb(0, 0, 0));&quot;&gt;S&lt;/font&gt;" style="rounded=0;whiteSpace=wrap;html=1;strokeColor=light-dark(#000000,#000000);fillColor=light-dark(#FFFFFF,#FFFFFF);" parent="1" vertex="1">
          <mxGeometry x="570" y="800" width="40" height="40" as="geometry" />
        </mxCell>
        <mxCell id="HecDsLcy7je2lKs4EvNO-56" value="&lt;font style=&quot;color: light-dark(rgb(0, 0, 0), rgb(0, 0, 0));&quot;&gt;S&lt;/font&gt;" style="rounded=0;whiteSpace=wrap;html=1;strokeColor=light-dark(#000000,#000000);fillColor=light-dark(#FFFFFF,#FFFFFF);" parent="1" vertex="1">
          <mxGeometry x="450" y="840" width="40" height="40" as="geometry" />
        </mxCell>
        <mxCell id="HecDsLcy7je2lKs4EvNO-57" value="&lt;font style=&quot;color: light-dark(rgb(0, 0, 0), rgb(0, 0, 0));&quot;&gt;S&lt;/font&gt;" style="rounded=0;whiteSpace=wrap;html=1;strokeColor=light-dark(#000000,#000000);fillColor=light-dark(#FFFFFF,#FFFFFF);" parent="1" vertex="1">
          <mxGeometry x="490" y="840" width="40" height="40" as="geometry" />
        </mxCell>
        <mxCell id="HecDsLcy7je2lKs4EvNO-58" value="&lt;font style=&quot;color: light-dark(rgb(0, 0, 0), rgb(0, 0, 0));&quot;&gt;S&lt;/font&gt;" style="rounded=0;whiteSpace=wrap;html=1;strokeColor=light-dark(#000000,#000000);fillColor=light-dark(#FFFFFF,#FFFFFF);" parent="1" vertex="1">
          <mxGeometry x="530" y="840" width="40" height="40" as="geometry" />
        </mxCell>
        <mxCell id="HecDsLcy7je2lKs4EvNO-59" value="&lt;font style=&quot;color: light-dark(rgb(0, 0, 0), rgb(0, 0, 0));&quot;&gt;S&lt;/font&gt;" style="rounded=0;whiteSpace=wrap;html=1;strokeColor=light-dark(#000000,#000000);fillColor=light-dark(#FFFFFF,#FFFFFF);" parent="1" vertex="1">
          <mxGeometry x="570" y="840" width="40" height="40" as="geometry" />
        </mxCell>
        <mxCell id="HecDsLcy7je2lKs4EvNO-60" value="&lt;font style=&quot;color: light-dark(rgb(0, 0, 0), rgb(0, 0, 0));&quot;&gt;0&lt;/font&gt;" style="text;html=1;align=center;verticalAlign=middle;whiteSpace=wrap;rounded=0;" parent="1" vertex="1">
          <mxGeometry x="450" y="730" width="40" height="30" as="geometry" />
        </mxCell>
        <mxCell id="HecDsLcy7je2lKs4EvNO-61" value="&lt;font style=&quot;color: light-dark(rgb(0, 0, 0), rgb(0, 0, 0));&quot;&gt;1&lt;/font&gt;" style="text;html=1;align=center;verticalAlign=middle;whiteSpace=wrap;rounded=0;" parent="1" vertex="1">
          <mxGeometry x="490" y="730" width="40" height="30" as="geometry" />
        </mxCell>
        <mxCell id="HecDsLcy7je2lKs4EvNO-62" value="&lt;font style=&quot;color: light-dark(rgb(0, 0, 0), rgb(0, 0, 0));&quot;&gt;2&lt;/font&gt;" style="text;html=1;align=center;verticalAlign=middle;whiteSpace=wrap;rounded=0;" parent="1" vertex="1">
          <mxGeometry x="530" y="730" width="40" height="30" as="geometry" />
        </mxCell>
        <mxCell id="HecDsLcy7je2lKs4EvNO-63" value="&lt;font style=&quot;color: light-dark(rgb(0, 0, 0), rgb(0, 0, 0));&quot;&gt;3&lt;/font&gt;" style="text;html=1;align=center;verticalAlign=middle;whiteSpace=wrap;rounded=0;" parent="1" vertex="1">
          <mxGeometry x="570" y="730" width="40" height="30" as="geometry" />
        </mxCell>
        <mxCell id="HecDsLcy7je2lKs4EvNO-64" value="&lt;font style=&quot;color: light-dark(rgb(0, 0, 0), rgb(0, 0, 0));&quot;&gt;0&lt;/font&gt;" style="text;html=1;align=center;verticalAlign=middle;whiteSpace=wrap;rounded=0;" parent="1" vertex="1">
          <mxGeometry x="410" y="765" width="40" height="30" as="geometry" />
        </mxCell>
        <mxCell id="HecDsLcy7je2lKs4EvNO-65" value="&lt;font style=&quot;color: light-dark(rgb(0, 0, 0), rgb(0, 0, 0));&quot;&gt;1&lt;/font&gt;" style="text;html=1;align=center;verticalAlign=middle;whiteSpace=wrap;rounded=0;" parent="1" vertex="1">
          <mxGeometry x="410" y="805" width="40" height="30" as="geometry" />
        </mxCell>
        <mxCell id="HecDsLcy7je2lKs4EvNO-66" value="&lt;font style=&quot;color: light-dark(rgb(0, 0, 0), rgb(0, 0, 0));&quot;&gt;2&lt;/font&gt;" style="text;html=1;align=center;verticalAlign=middle;whiteSpace=wrap;rounded=0;" parent="1" vertex="1">
          <mxGeometry x="410" y="845" width="40" height="30" as="geometry" />
        </mxCell>
        <mxCell id="HecDsLcy7je2lKs4EvNO-67" value="&lt;font style=&quot;color: light-dark(rgb(0, 0, 0), rgb(0, 0, 0));&quot;&gt;Row (First Index)&lt;/font&gt;" style="text;html=1;align=center;verticalAlign=middle;whiteSpace=wrap;rounded=0;" parent="1" vertex="1">
          <mxGeometry x="360" y="790" width="60" height="50" as="geometry" />
        </mxCell>
        <mxCell id="HecDsLcy7je2lKs4EvNO-68" value="&lt;font style=&quot;color: light-dark(rgb(0, 0, 0), rgb(0, 0, 0));&quot;&gt;Column (Second Index)&lt;/font&gt;" style="text;html=1;align=center;verticalAlign=middle;whiteSpace=wrap;rounded=0;" parent="1" vertex="1">
          <mxGeometry x="460" y="700" width="60" height="40" as="geometry" />
        </mxCell>
        <mxCell id="HecDsLcy7je2lKs4EvNO-69" value="&lt;font style=&quot;color: light-dark(rgb(0, 0, 0), rgb(0, 0, 0));&quot;&gt;4 bytes&lt;/font&gt;" style="rounded=1;whiteSpace=wrap;html=1;strokeColor=light-dark(#000000,#000000);fillColor=light-dark(#FFFFFF,#FFFFFF);" parent="1" vertex="1">
          <mxGeometry x="80" y="1000" width="80" height="40" as="geometry" />
        </mxCell>
        <mxCell id="HecDsLcy7je2lKs4EvNO-70" value="&lt;font style=&quot;color: light-dark(rgb(0, 0, 0), rgb(0, 0, 0));&quot;&gt;4 bytes&lt;/font&gt;" style="rounded=1;whiteSpace=wrap;html=1;strokeColor=light-dark(#000000,#000000);fillColor=light-dark(#FFFFFF,#FFFFFF);" parent="1" vertex="1">
          <mxGeometry x="160" y="1000" width="80" height="40" as="geometry" />
        </mxCell>
        <mxCell id="HecDsLcy7je2lKs4EvNO-71" value="&lt;font style=&quot;color: light-dark(rgb(0, 0, 0), rgb(0, 0, 0));&quot;&gt;4 bytes&lt;/font&gt;" style="rounded=1;whiteSpace=wrap;html=1;strokeColor=light-dark(#000000,#000000);fillColor=light-dark(#FFFFFF,#FFFFFF);" parent="1" vertex="1">
          <mxGeometry x="240" y="1000" width="80" height="40" as="geometry" />
        </mxCell>
        <mxCell id="HecDsLcy7je2lKs4EvNO-72" value="&lt;font style=&quot;color: light-dark(rgb(0, 0, 0), rgb(0, 0, 0));&quot;&gt;4 bytes&lt;/font&gt;" style="rounded=1;whiteSpace=wrap;html=1;strokeColor=light-dark(#000000,#000000);fillColor=light-dark(#FFFFFF,#FFFFFF);" parent="1" vertex="1">
          <mxGeometry x="320" y="1000" width="80" height="40" as="geometry" />
        </mxCell>
        <mxCell id="HecDsLcy7je2lKs4EvNO-73" value="&lt;font style=&quot;color: light-dark(rgb(0, 0, 0), rgb(0, 0, 0));&quot;&gt;4 bytes&lt;/font&gt;" style="rounded=1;whiteSpace=wrap;html=1;strokeColor=light-dark(#000000,#000000);fillColor=light-dark(#FFFFFF,#FFFFFF);" parent="1" vertex="1">
          <mxGeometry x="400" y="1000" width="80" height="40" as="geometry" />
        </mxCell>
        <mxCell id="HecDsLcy7je2lKs4EvNO-75" value="" style="endArrow=classic;html=1;rounded=0;strokeColor=light-dark(#000000,#000000);" parent="1" edge="1">
          <mxGeometry width="50" height="50" relative="1" as="geometry">
            <mxPoint x="80" y="1080" as="sourcePoint" />
            <mxPoint x="80" y="1040" as="targetPoint" />
          </mxGeometry>
        </mxCell>
        <mxCell id="HecDsLcy7je2lKs4EvNO-77" value="" style="endArrow=classic;html=1;rounded=0;strokeColor=light-dark(#000000,#000000);" parent="1" edge="1">
          <mxGeometry width="50" height="50" relative="1" as="geometry">
            <mxPoint x="159.67000000000002" y="1080" as="sourcePoint" />
            <mxPoint x="159.67000000000002" y="1040" as="targetPoint" />
          </mxGeometry>
        </mxCell>
        <mxCell id="HecDsLcy7je2lKs4EvNO-78" value="" style="endArrow=classic;html=1;rounded=0;strokeColor=light-dark(#000000,#000000);" parent="1" edge="1">
          <mxGeometry width="50" height="50" relative="1" as="geometry">
            <mxPoint x="240" y="1080" as="sourcePoint" />
            <mxPoint x="240" y="1040" as="targetPoint" />
          </mxGeometry>
        </mxCell>
        <mxCell id="HecDsLcy7je2lKs4EvNO-79" value="" style="endArrow=classic;html=1;rounded=0;strokeColor=light-dark(#000000,#000000);" parent="1" edge="1">
          <mxGeometry width="50" height="50" relative="1" as="geometry">
            <mxPoint x="319.66999999999996" y="1080" as="sourcePoint" />
            <mxPoint x="319.66999999999996" y="1040" as="targetPoint" />
          </mxGeometry>
        </mxCell>
        <mxCell id="HecDsLcy7je2lKs4EvNO-80" value="" style="endArrow=classic;html=1;rounded=0;strokeColor=light-dark(#000000,#000000);" parent="1" edge="1">
          <mxGeometry width="50" height="50" relative="1" as="geometry">
            <mxPoint x="400" y="1080" as="sourcePoint" />
            <mxPoint x="400" y="1040" as="targetPoint" />
          </mxGeometry>
        </mxCell>
        <mxCell id="HecDsLcy7je2lKs4EvNO-81" value="" style="endArrow=classic;html=1;rounded=0;strokeColor=light-dark(#000000,#000000);" parent="1" edge="1">
          <mxGeometry width="50" height="50" relative="1" as="geometry">
            <mxPoint x="479.67" y="1080" as="sourcePoint" />
            <mxPoint x="479.67" y="1040" as="targetPoint" />
          </mxGeometry>
        </mxCell>
        <mxCell id="HecDsLcy7je2lKs4EvNO-83" value="&lt;font style=&quot;color: light-dark(rgb(0, 0, 0), rgb(0, 0, 0)); font-size: 10px;&quot;&gt;0x7ffee4065820&lt;/font&gt;" style="text;html=1;align=center;verticalAlign=middle;whiteSpace=wrap;rounded=0;" parent="1" vertex="1">
          <mxGeometry x="50" y="1080" width="70" height="10" as="geometry" />
        </mxCell>
        <mxCell id="HecDsLcy7je2lKs4EvNO-84" value="&lt;font style=&quot;color: light-dark(rgb(0, 0, 0), rgb(0, 0, 0)); font-size: 10px;&quot;&gt;0x7ffee4065824&lt;/font&gt;" style="text;html=1;align=center;verticalAlign=middle;whiteSpace=wrap;rounded=0;" parent="1" vertex="1">
          <mxGeometry x="120" y="1080" width="80" height="10" as="geometry" />
        </mxCell>
        <mxCell id="HecDsLcy7je2lKs4EvNO-85" value="&lt;font style=&quot;color: light-dark(rgb(0, 0, 0), rgb(0, 0, 0)); font-size: 10px;&quot;&gt;0x7ffee4065828&lt;/font&gt;" style="text;html=1;align=center;verticalAlign=middle;whiteSpace=wrap;rounded=0;" parent="1" vertex="1">
          <mxGeometry x="205" y="1080" width="75" height="10" as="geometry" />
        </mxCell>
        <mxCell id="HecDsLcy7je2lKs4EvNO-86" value="&lt;font style=&quot;color: light-dark(rgb(0, 0, 0), rgb(0, 0, 0)); font-size: 10px;&quot;&gt;0x7ffee406582c&lt;/font&gt;" style="text;html=1;align=center;verticalAlign=middle;whiteSpace=wrap;rounded=0;" parent="1" vertex="1">
          <mxGeometry x="280" y="1080" width="75" height="10" as="geometry" />
        </mxCell>
        <mxCell id="HecDsLcy7je2lKs4EvNO-87" value="&lt;font style=&quot;color: light-dark(rgb(0, 0, 0), rgb(0, 0, 0)); font-size: 10px;&quot;&gt;0x7ffee4065830&lt;/font&gt;" style="text;html=1;align=center;verticalAlign=middle;whiteSpace=wrap;rounded=0;" parent="1" vertex="1">
          <mxGeometry x="360" y="1080" width="75" height="10" as="geometry" />
        </mxCell>
        <mxCell id="HecDsLcy7je2lKs4EvNO-88" value="&lt;font style=&quot;color: light-dark(rgb(0, 0, 0), rgb(0, 0, 0)); font-size: 10px;&quot;&gt;0x7ffee4065834&lt;/font&gt;" style="text;html=1;align=center;verticalAlign=middle;whiteSpace=wrap;rounded=0;" parent="1" vertex="1">
          <mxGeometry x="445" y="1080" width="75" height="10" as="geometry" />
        </mxCell>
      </root>
    </mxGraphModel>
  </diagram>
</mxfile>
